<?xml version="1.0" standalone="no"?>
<!DOCTYPE svg PUBLIC "-//W3C//DTD SVG 20010904//EN"
 "http://www.w3.org/TR/2001/REC-SVG-20010904/DTD/svg10.dtd">
<svg version="1.0" xmlns="http://www.w3.org/2000/svg"
 width="502.000000pt" height="502.000000pt" viewBox="0 0 502.000000 502.000000"
 preserveAspectRatio="xMidYMid meet">
<metadata>
Created by potrace 1.11, written by Peter Selinger 2001-2013
</metadata>
<g transform="translate(0.000000,502.000000) scale(0.100000,-0.100000)"
fill="#000000" stroke="none">
<path d="M607 3174 c-1 -1 -22 -4 -47 -7 -185 -24 -336 -112 -433 -250 -104
-149 -146 -355 -111 -552 71 -401 430 -603 890 -501 110 24 113 27 92 116 -11
48 -13 51 -37 45 -234 -58 -394 -53 -536 18 -107 53 -181 148 -221 282 -18 63
-25 234 -12 312 29 174 142 308 305 363 102 34 257 36 388 5 55 -13 101 -23
102 -22 1 1 8 31 16 66 l15 63 -32 13 c-55 23 -196 47 -288 49 -49 1 -90 1
-91 0z"/>
<path d="M1913 3152 l-63 -3 -2 -308 -3 -308 -172 221 c-95 122 -203 260 -240
308 l-68 88 -109 0 c-102 0 -108 -1 -95 -17 8 -10 17 -20 20 -23 3 -3 99 -120
213 -260 115 -140 218 -266 230 -280 12 -14 25 -30 29 -37 5 -7 -83 -121 -228
-295 -130 -156 -246 -294 -257 -308 -11 -14 -30 -35 -41 -47 l-20 -23 114 0
115 0 34 44 c19 24 134 166 255 316 l220 273 3 -316 2 -317 90 0 90 0 2 317 3
317 80 -100 c44 -54 85 -106 92 -114 6 -8 27 -34 45 -56 47 -59 87 -109 148
-184 29 -36 73 -91 99 -122 l46 -58 114 0 114 0 -19 22 c-10 12 -23 27 -29 34
-5 6 -28 33 -50 60 -54 65 -112 134 -139 164 -12 14 -51 61 -86 105 -36 44
-70 86 -77 93 -7 7 -29 34 -50 60 -21 26 -48 58 -61 72 -48 52 -56 39 184 331
124 151 239 291 255 312 35 42 44 39 -96 37 -72 -1 -93 -4 -103 -18 -48 -64
-58 -76 -67 -86 -6 -6 -43 -54 -82 -106 -40 -52 -83 -107 -95 -122 -13 -14
-68 -85 -123 -157 l-100 -130 -3 308 -2 309 -28 3 c-15 2 -55 3 -89 1z"/>
<path d="M3723 3152 l-73 -3 -87 -102 c-48 -56 -90 -104 -93 -107 -3 -3 -73
-84 -155 -180 -82 -96 -161 -188 -175 -203 l-26 -28 0 310 1 311 -90 0 -90 0
0 -642 0 -643 90 0 89 0 1 305 c0 188 4 305 10 305 5 0 27 -20 50 -45 22 -24
51 -57 65 -72 14 -16 117 -133 230 -262 l205 -234 114 -1 114 -1 -19 22 c-20
23 -70 79 -120 134 -154 167 -219 238 -327 358 l-126 139 63 71 c34 39 74 85
88 101 14 17 65 75 113 130 119 137 130 149 205 235 36 41 68 77 72 78 5 2 8
7 8 12 0 11 -52 16 -137 12z"/>
<path d="M4014 3150 l-41 -5 209 -313 c114 -172 208 -317 208 -322 0 -5 -94
-151 -210 -325 -115 -173 -210 -318 -210 -320 0 -3 42 -5 93 -5 l92 1 160 245
c88 135 164 248 169 251 11 7 -5 30 185 -261 l154 -236 95 0 94 0 -16 23 c-9
12 -19 29 -23 37 -4 8 -9 17 -13 20 -3 3 -21 30 -40 60 -19 30 -38 60 -43 65
-5 6 -73 108 -152 227 l-144 218 160 242 c88 134 183 276 211 316 27 40 48 75
46 77 -4 4 -85 7 -143 6 -37 -1 -43 -5 -80 -62 -22 -33 -45 -68 -50 -77 -6 -9
-53 -83 -106 -163 -53 -80 -102 -156 -108 -167 -7 -12 -16 -22 -20 -22 -5 0
-81 110 -170 244 l-160 244 -53 4 c-29 1 -71 1 -94 -2z"/>
</g>
</svg>
